HIERARCHY
ROOT Hips
{
  OFFSET -35.2597 29.1586 114.425
  CHANNELS 6 Xposition Yposition Zposition Zrotation Xrotation Yrotation
  JOINT LeftUpLeg
  {
    OFFSET 8.64259 1.95398 -2.38835
    CHANNELS 3 Zrotation Xrotation Yrotation
    JOINT LeftLeg
    {
      OFFSET 43.7702 0 0
      CHANNELS 3 Zrotation Xrotation Yrotation
      JOINT LeftFoot
      {
        OFFSET 40.6238 0 0
        CHANNELS 3 Zrotation Xrotation Yrotation
        JOINT LeftToeBase
        {
          OFFSET 12.7242 0 0
          CHANNELS 3 Zrotation Xrotation Yrotation
          End Site
          {
            OFFSET 0 0 0
          }
        }
      }
    }
  }
  JOINT RightUpLeg
  {
    OFFSET -8.2249 1.95398 -2.59336
    CHANNELS 3 Zrotation Xrotation Yrotation
    JOINT RightLeg
    {
      OFFSET 43.5653 0 0
      CHANNELS 3 Zrotation Xrotation Yrotation
      JOINT RightFoot
      {
        OFFSET 40.6238 0 0
        CHANNELS 3 Zrotation Xrotation Yrotation
        JOINT RightToeBase
        {
          OFFSET 12.7242 0 0
          CHANNELS 3 Zrotation Xrotation Yrotation
          End Site
          {
            OFFSET 0 0 0
          }
        }
      }
    }
  }
  JOINT Spine
  {
    OFFSET 0.165834 0.87714 6.61349
    CHANNELS 3 Zrotation Xrotation Yrotation
    JOINT Spine1
    {
      OFFSET 7.38963 1.71661e-005 0
      CHANNELS 3 Zrotation Xrotation Yrotation
      JOINT Spine2
      {
        OFFSET 11.9445 1.14441e-005 0
        CHANNELS 3 Zrotation Xrotation Yrotation
        JOINT Spine3
        {
          OFFSET 14.7254 4.19617e-005 0
          CHANNELS 3 Zrotation Xrotation Yrotation
          JOINT Spine4
          {
            OFFSET 10.9679 0 0
            CHANNELS 3 Zrotation Xrotation Yrotation
            JOINT RightShoulder
            {
              OFFSET 2.46616 -1.6653 3.69651
              CHANNELS 3 Zrotation Xrotation Yrotation
              JOINT RightArm
              {
                OFFSET 13.0012 0 0
                CHANNELS 3 Zrotation Xrotation Yrotation
                JOINT RightForeArm
                {
                  OFFSET 28.7848 1.62311e-005 0
                  CHANNELS 3 Zrotation Xrotation Yrotation
                  JOINT RightHand
                  {
                    OFFSET 26.5688 1.62095e-005 0
                    CHANNELS 3 Zrotation Xrotation Yrotation
                    End Site
                    {
                      OFFSET 0 0 0
                    }
                  }
                }
              }
            }
            JOINT LeftShoulder
            {
              OFFSET 2.38034 -1.29275 -3.7523
              CHANNELS 3 Zrotation Xrotation Yrotation
              JOINT LeftArm
              {
                OFFSET 16.3182 6.07031e-005 0
                CHANNELS 3 Zrotation Xrotation Yrotation
                JOINT LeftForeArm
                {
                  OFFSET 27.0901 0 0
                  CHANNELS 3 Zrotation Xrotation Yrotation
                  JOINT LeftHand
                  {
                    OFFSET 24.5451 1.51738e-005 0
                    CHANNELS 3 Zrotation Xrotation Yrotation
                    End Site
                    {
                      OFFSET 0 0 0
                    }
                  }
                }
              }
            }
            JOINT Neck
            {
              OFFSET 5.0226 -0.0266342 0
              CHANNELS 3 Zrotation Xrotation Yrotation
              JOINT Head
              {
                OFFSET 6.69364 2.86102e-005 0
                CHANNELS 3 Zrotation Xrotation Yrotation
                End Site
                {
                  OFFSET 0 0 0
                }
              }
            }
          }
        }
      }
    }
  }
}
MOTION
Frames:	12
Frame Time:	0.0416667
-247.982 62.0287 -228.213 117.824 -39.2844 126.563 166.812 54.3383 140.4 -111.756 17.2187 6.11272 87.1554 23.587 3.07767 40.1576 2.83 7.17216 137.004 37.8327 94.7602 -106.817 -12.4659 -3.888 88.6375 -21.2396 -3.04587 34.5914 -3.0144 2.51153 1.62921 16.7466 -92.635 -6.60308 2.39519 -4.74642 -18.2808 2.18425 -4.84694 -40.7851 3.71001 -3.80898 -20.7724 3.71001 -3.80898 68.2871 -39.7746 -138.888 16.1478 20.0639 -48.8779 -174.984 -76.5589 -173.628 -41.069 -5.06231 8.52086 -90.3573 -32.9223 73.6258 -33.1886 4.93048 -71.8458 59.5502 87.3041 -60.6582 23.4298 3.30213 10.3639 23.5671 -6.54056 -0.940097 6.34372 -6.27732 -5.53843 
-247.845 61.8947 -228.156 117.898 -39.0683 126.717 166.551 54.156 140.572 -111.994 16.9046 6.06797 87.6942 23.8693 2.76716 40.0312 2.77672 7.13131 136.845 37.6914 94.4546 -107.024 -12.7657 -3.93093 88.721 -21.3301 -3.10791 34.7446 -3.0682 2.48779 1.63806 16.7695 -92.6399 -6.64869 2.41196 -4.75174 -18.3264 2.20072 -4.85301 -40.8309 3.7276 -3.80903 -20.8182 3.72759 -3.80904 68.158 -39.949 -138.966 16.2135 20.0148 -49.0749 -174.753 -76.8988 -173.4 -40.2927 -4.74475 7.93876 -90.1719 -32.5034 73.829 -33.2507 5.02589 -71.8552 65.858 87.4599 -66.9663 23.4575 3.30496 10.3614 23.5466 -6.14028 -1.56479 5.81468 -5.57547 -4.14178 
-247.83 61.7055 -228.186 117.347 -39.2141 126.514 165.634 54.6074 141.17 -112.27 16.8299 6.02957 87.6357 23.8327 2.86637 40.2356 2.79487 7.38359 136.353 38.1118 95.0307 -107.281 -12.7624 -3.92383 88.5563 -21.2661 -3.38873 35.0629 -3.25206 2.76008 1.64935 16.7205 -92.6624 -6.55033 2.4256 -4.79686 -18.2282 2.2124 -4.89866 -40.7319 3.75414 -3.84802 -20.7193 3.75413 -3.84802 67.9495 -40.1038 -139.175 16.0967 20.1145 -48.9561 -174.787 -76.8469 -173.433 -40.4446 -4.76597 7.94211 -90.272 -32.5333 73.6547 -33.3347 4.99671 -71.4693 63.2482 87.4015 -64.3563 24.3131 3.52839 10.7872 23.5006 -5.79192 -1.56689 5.51346 -5.20496 -3.66226 
-247.946 61.4559 -228.24 116.251 -39.6915 126.082 163.986 55.5723 142.413 -112.508 16.4304 5.98461 87.579 23.5688 2.71497 40.3117 2.85797 7.32364 135.737 38.9046 96.3911 -107.448 -12.262 -3.84914 88.5013 -21.091 -3.09984 34.5449 -3.0394 2.69963 1.67468 16.6317 -92.6799 -6.37197 2.46726 -4.83197 -18.05 2.25248 -4.93556 -40.5537 3.80441 -3.86902 -20.541 3.8044 -3.86903 68.1794 -40.0012 -138.899 16.3806 19.8699 -49.2161 -174.868 -76.7364 -173.514 -40.2068 -4.79042 8.09404 -90.2172 -32.2858 73.6745 -33.3942 5.06353 -71.4192 55.54 87.1761 -56.6478 24.1861 3.49939 10.7651 23.2649 -5.2829 -1.24309 5.7446 -4.85246 -3.85713 
-248.173 61.1746 -228.208 114.983 -40.2253 125.579 161.871 56.5524 144.148 -112.69 16.0745 5.93361 87.7126 23.3838 2.4422 40.2011 2.73328 7.50044 135.467 39.6174 98.4988 -107.684 -10.5644 -3.69595 88.8852 -21.4744 -3.6264 34.727 -3.26135 3.36915 1.72553 16.5518 -92.7088 -6.21095 2.55604 -4.88231 -17.889 2.33894 -4.98976 -40.3934 3.90418 -3.89039 -20.3807 3.90417 -3.89042 68.3629 -40.0177 -138.613 16.4802 19.7948 -49.5334 -174.856 -76.7785 -173.502 -40.7662 -4.92523 8.26087 -90.1799 -32.8498 73.927 -33.4996 5.051 -71.0013 44.2905 86.6442 -45.3978 28.6467 4.34268 11.5099 23.8862 -5.10628 -1.06532 5.53501 -4.73456 -3.96567 
-248.288 60.7771 -228.39 113.241 -41.0815 124.94 158.982 58.0386 146.507 -113.178 15.4387 5.8637 87.6903 23.0087 1.96535 40.1285 2.57234 7.83043 134.174 41.0032 100.661 -107.943 -10.5947 -3.64401 88.3066 -20.9094 -3.20967 35.7657 -3.49745 2.64531 1.78476 16.4032 -92.7293 -5.91186 2.6616 -4.92074 -17.5898 2.44271 -5.03278 -40.0957 4.01639 -3.89533 -20.0831 4.01638 -3.89537 68.4595 -39.8557 -138.575 16.5835 19.7062 -49.6633 -174.897 -76.69 -173.543 -40.1402 -4.83089 8.22755 -90.088 -32.8824 74.105 -33.6811 5.11355 -70.4976 32.4148 85.5828 -33.5213 31.3685 4.66782 11.2302 23.9775 -4.86061 -0.814843 5.68932 -4.60044 -4.14153 
-248.401 60.348 -228.587 111.388 -42.1099 123.968 156.363 59.7173 148.746 -113.615 14.93 5.78434 87.6518 22.8506 2.01016 40.1961 2.67025 7.66452 132.835 42.5977 103.02 -108.375 -10.1492 -3.59725 88.3116 -20.9456 -3.42204 35.3749 -3.53551 3.50093 1.862 16.2454 -92.7172 -5.59373 2.81283 -4.8923 -17.2713 2.59508 -5.01101 -39.7814 4.15214 -3.82266 -19.7688 4.15214 -3.82266 68.3723 -40.0194 -138.598 16.3813 19.8916 -49.6563 -174.968 -76.5884 -173.613 -41.2758 -4.99847 8.27599 -90.0365 -33.1682 74.2909 -33.5237 5.07483 -70.9721 37.785 86.1562 -38.8919 30.4984 4.50945 11.136 24.4913 -4.8867 -0.86128 5.65198 -4.60144 -4.13699 
-248.539 59.7967 -228.778 109.679 -43.0665 123.077 153.256 61.3104 151.563 -114.26 14.468 5.69486 87.5629 22.5388 1.85463 40.2057 2.65885 7.71001 131.378 44.2522 105.309 -108.938 -9.92592 -3.6042 88.0873 -20.5746 -2.84979 34.4645 -2.9098 2.27633 1.91237 16.1134 -92.7082 -5.32803 2.911 -4.87487 -17.0053 2.69392 -4.99791 -39.5182 4.24054 -3.77646 -19.5056 4.24055 -3.77645 68.3559 -39.9729 -138.653 16.2192 20.0514 -49.8628 -175.152 -76.3077 -173.795 -40.4489 -4.81457 8.07394 -90.0881 -33.557 74.3194 -33.3238 4.86041 -71.1677 39.6284 86.3132 -40.7354 30.6393 4.4309 10.8063 24.474 -4.80905 -0.627915 6.14915 -4.63748 -4.32572 
-248.648 59.2832 -229.029 107.439 -44.3108 121.877 149.461 63.1969 155.243 -114.808 14.0704 5.61487 87.6043 22.3425 1.55393 40.162 2.54961 7.94181 129.394 46.0873 108.282 -109.48 -9.74813 -3.60477 87.8831 -20.2196 -2.48309 36.2074 -3.56771 2.18537 1.98194 15.9174 -92.6641 -4.93364 3.05659 -4.79132 -16.6103 2.843 -4.92086 -39.1287 4.35436 -3.65281 -19.1161 4.35435 -3.65279 68.4609 -39.9452 -138.514 16.5812 19.7289 -50.0972 -174.969 -76.5852 -173.615 -41.0376 -5.09455 8.61881 -89.8353 -32.8092 74.5458 -33.4284 5.02036 -71.1852 35.9489 85.9815 -37.0557 30.4974 4.5173 11.1625 24.2618 -4.83157 -1.10578 7.34079 -4.51144 -3.96605 
-248.779 58.7289 -229.241 105.445 -45.6184 120.622 145.899 64.9017 158.742 -115.403 13.6665 5.53151 87.3632 22.2071 2.06141 40.3781 2.74433 7.73391 127.805 47.9453 111.313 -109.998 -9.20682 -3.60009 87.5893 -20.0246 -2.61641 36.4625 -3.82759 2.9526 2.03406 15.7232 -92.6065 -4.5432 3.17271 -4.68613 -16.2192 2.96365 -4.8209 -38.743 4.43356 -3.51733 -18.7303 4.43355 -3.51735 68.4886 -39.8445 -138.539 16.6342 19.6645 -49.7621 -175.089 -76.3961 -173.734 -41.9214 -5.10159 8.31182 -89.8794 -32.8374 74.4733 -33.4342 4.89004 -70.8358 35.0619 85.8898 -36.1686 30.838 4.47001 10.8401 23.8609 -4.76873 -0.610673 9.22012 -4.74578 -4.61689 
-248.945 58.169 -229.411 103.888 -46.7281 119.291 143.078 66.2921 161.454 -115.908 12.9836 5.46957 87.3511 21.9316 1.8059 40.3864 2.78909 7.6237 126.443 49.7689 113.832 -110.679 -8.64129 -3.66518 87.5353 -19.9603 -2.51479 36.1301 -3.69253 2.90569 2.06374 15.5665 -92.5256 -4.22895 3.25347 -4.53672 -15.9042 3.05087 -4.67523 -38.4333 4.46576 -3.35031 -18.4206 4.46576 -3.3503 68.4554 -39.9382 -138.527 16.6588 19.6274 -49.4553 -175.358 -75.9597 -174.001 -42.8881 -5.37916 8.69433 -89.8046 -32.5229 74.5116 -33.5784 5.01938 -70.633 34.8747 85.8697 -35.9814 30.8331 4.38915 10.5731 23.9746 -5.45574 -1.07061 10.0428 -5.22637 -4.18515 
-249.025 57.615 -229.479 102.218 -47.874 117.888 139.973 67.5459 164.675 -116.498 12.6985 5.40492 87.4128 21.7885 1.72165 40.5539 2.81552 7.80258 125.08 51.5081 116.425 -111.345 -7.75508 -3.69173 87.6945 -19.8445 -2.00454 35.7342 -3.57174 3.04728 2.12381 15.391 -92.4707 -3.87621 3.38566 -4.43515 -15.5508 3.1874 -4.57958 -38.0854 4.56136 -3.21342 -18.0728 4.56137 -3.21341 68.3991 -40.0648 -138.528 16.6647 19.6066 -49.1097 -174.997 -76.5381 -173.646 -42.1612 -5.26374 8.65902 -90.0298 -33.7137 74.4743 -33.5429 4.99954 -70.713 46.9123 86.7967 -48.0198 30.2624 4.2501 10.3819 24.1409 -6.27748 -1.8144 10.6363 -5.69036 -3.44904 
